<svg width="369" height="148" viewBox="0 0 369 148" fill="none" xmlns="http://www.w3.org/2000/svg">
    <path opacity="0.2" d="M0.832031 131.645V16.4102C0.832031 11.2669 2.39453 7.26302 5.51953 4.39844C8.64453 1.46875 13.332 0.00390625 19.582 0.00390625C25.832 0.00390625 30.487 1.5013 33.5469 4.49609C36.6719 7.42578 38.2344 11.3971 38.2344 16.4102V131.645C38.2344 136.658 36.6719 140.629 33.5469 143.559C30.487 146.488 25.832 147.953 19.582 147.953C13.332 147.953 8.64453 146.521 5.51953 143.656C2.39453 140.792 0.832031 136.788 0.832031 131.645ZM15.9688 129.594C15.9688 132.263 17.1732 133.598 19.582 133.598C21.9909 133.598 23.1953 132.263 23.1953 129.594V18.3633C23.1953 15.694 21.9909 14.3594 19.582 14.3594C17.1732 14.3594 15.9688 15.694 15.9688 18.3633V129.594ZM42.9219 33.9883V22.1719C49.4974 22.1719 54.2174 21.1302 57.082 19.0469C59.9466 16.8984 61.3789 12.6016 61.3789 6.15625V1.95703H74.3672V146H59.3281V33.9883H42.9219Z" fill="#505258"/>
    <path d="M89.2227 146V1.95703H110.023L117.445 57.2305L124.184 1.95703H144.984V146H130.043V75.1992L118.227 143.754H116.176L104.359 75.1992V146H89.2227ZM151.332 146V1.95703H166.469V146H151.332ZM173.012 146V1.95703H185.023L198.793 59.5742V1.95703H214.027V146H202.602L188.148 83.4023V146H173.012ZM217.641 15.043V1.95703H258.656V15.043H245.668V146H230.629V15.043H217.641ZM262.27 146V1.95703H277.406V146H262.27ZM283.949 146V1.95703H295.961L309.73 59.5742V1.95703H324.965V146H313.539L299.086 83.4023V146H283.949ZM331.41 131.645V17.582C331.41 12.3737 332.973 8.23958 336.098 5.17969C339.288 2.11979 343.975 0.589844 350.16 0.589844C356.02 0.589844 360.479 2.15234 363.539 5.27734C366.664 8.40234 368.227 12.5039 368.227 17.582V50.0039H353.773V18.7539C353.773 16.2799 352.569 15.043 350.16 15.043C347.751 15.043 346.547 16.2799 346.547 18.7539V129.789C346.547 132.328 347.751 133.598 350.16 133.598C352.569 133.598 353.773 132.328 353.773 129.789V78.2266H349.965V65.4336H368.227V146H361.586L358.949 141.215C358.103 143.298 356.605 144.926 354.457 146.098C352.309 147.335 350.03 147.953 347.621 147.953C336.814 147.953 331.41 142.517 331.41 131.645Z" fill="#505258"/>
</svg>
