<svg width="432" height="148" viewBox="0 0 432 148" fill="none" xmlns="http://www.w3.org/2000/svg">
    <path opacity="0.2" d="M0.832031 131.645V16.4102C0.832031 11.2669 2.39453 7.26302 5.51953 4.39844C8.64453 1.46875 13.332 0.00390625 19.582 0.00390625C25.832 0.00390625 30.487 1.5013 33.5469 4.49609C36.6719 7.42578 38.2344 11.3971 38.2344 16.4102V131.645C38.2344 136.658 36.6719 140.629 33.5469 143.559C30.487 146.488 25.832 147.953 19.582 147.953C13.332 147.953 8.64453 146.521 5.51953 143.656C2.39453 140.792 0.832031 136.788 0.832031 131.645ZM15.9688 129.594C15.9688 132.263 17.1732 133.598 19.582 133.598C21.9909 133.598 23.1953 132.263 23.1953 129.594V18.3633C23.1953 15.694 21.9909 14.3594 19.582 14.3594C17.1732 14.3594 15.9688 15.694 15.9688 18.3633V129.594ZM43.8008 146V129.984L65.9688 47.7578C66.75 44.763 67.1406 42.9727 67.1406 42.3867V18.3633C67.1406 15.694 65.9362 14.3594 63.5273 14.3594C61.1836 14.3594 60.0117 15.694 60.0117 18.3633V48.2461H44.7773V16.4102C44.7773 11.2669 46.3398 7.26302 49.4648 4.39844C52.5898 1.46875 57.2773 0.00390625 63.5273 0.00390625C69.7773 0.00390625 74.4323 1.5013 77.4922 4.49609C80.6172 7.42578 82.1797 11.3971 82.1797 16.4102V41.2148C82.1797 43.5586 81.8542 45.9674 81.2031 48.4414L58.5469 133.012H82.375V146H43.8008Z" fill="#505258"/>
    <path d="M89.2227 146V1.95703H120.766V15.043H104.359V62.4062H120.18V75.1992H104.359V133.012H120.766V146H89.2227ZM122.719 1.95703H138.148L144.301 66.6055L150.746 1.95703H166.176L151.527 146H137.367L122.719 1.95703ZM167.738 130.961V16.9961C167.738 11.7878 169.236 7.65365 172.23 4.59375C175.29 1.53385 179.913 0.00390625 186.098 0.00390625C192.022 0.00390625 196.579 1.56641 199.77 4.69141C202.96 7.81641 204.555 11.918 204.555 16.9961V130.961C204.555 136.039 202.96 140.141 199.77 143.266C196.579 146.391 192.022 147.953 186.098 147.953C179.913 147.953 175.29 146.423 172.23 143.363C169.236 140.303 167.738 136.169 167.738 130.961ZM182.484 129.594C182.484 132.263 183.689 133.598 186.098 133.598C188.507 133.598 189.711 132.263 189.711 129.594V18.3633C189.711 15.694 188.507 14.3594 186.098 14.3594C183.689 14.3594 182.484 15.694 182.484 18.3633V129.594ZM210.902 146V1.95703H226.039V133.012H236.879V146H210.902ZM240.59 130.375V1.95703H255.336V129.203C255.336 131.742 256.54 133.012 258.949 133.012C261.358 133.012 262.562 131.742 262.562 129.203V1.95703H277.406V130.375C277.406 135.453 275.811 139.555 272.621 142.68C269.431 145.805 264.874 147.367 258.949 147.367C252.764 147.367 248.142 145.837 245.082 142.777C242.087 139.717 240.59 135.583 240.59 130.375ZM280.922 15.043V1.95703H321.938V15.043H308.949V146H293.91V15.043H280.922ZM325.551 146V1.95703H340.688V146H325.551ZM347.23 130.961V16.9961C347.23 11.7878 348.728 7.65365 351.723 4.59375C354.783 1.53385 359.405 0.00390625 365.59 0.00390625C371.514 0.00390625 376.072 1.56641 379.262 4.69141C382.452 7.81641 384.047 11.918 384.047 16.9961V130.961C384.047 136.039 382.452 140.141 379.262 143.266C376.072 146.391 371.514 147.953 365.59 147.953C359.405 147.953 354.783 146.423 351.723 143.363C348.728 140.303 347.23 136.169 347.23 130.961ZM361.977 129.594C361.977 132.263 363.181 133.598 365.59 133.598C367.999 133.598 369.203 132.263 369.203 129.594V18.3633C369.203 15.694 367.999 14.3594 365.59 14.3594C363.181 14.3594 361.977 15.694 361.977 18.3633V129.594ZM390.395 146V1.95703H402.406L416.176 59.5742V1.95703H431.41V146H419.984L405.531 83.4023V146H390.395Z" fill="#505258"/>
</svg>
