<svg width="324" height="148" viewBox="0 0 324 148" fill="none" xmlns="http://www.w3.org/2000/svg">
    <path opacity="0.2" d="M0.832031 131.645V16.4102C0.832031 11.2669 2.39453 7.26302 5.51953 4.39844C8.64453 1.46875 13.332 0.00390625 19.582 0.00390625C25.832 0.00390625 30.487 1.5013 33.5469 4.49609C36.6719 7.42578 38.2344 11.3971 38.2344 16.4102V131.645C38.2344 136.658 36.6719 140.629 33.5469 143.559C30.487 146.488 25.832 147.953 19.582 147.953C13.332 147.953 8.64453 146.521 5.51953 143.656C2.39453 140.792 0.832031 136.788 0.832031 131.645ZM15.9688 129.594C15.9688 132.263 17.1732 133.598 19.582 133.598C21.9909 133.598 23.1953 132.263 23.1953 129.594V18.3633C23.1953 15.694 21.9909 14.3594 19.582 14.3594C17.1732 14.3594 15.9688 15.694 15.9688 18.3633V129.594ZM43.8008 131.645V86.625H58.9375V129.594C58.9375 132.263 60.1419 133.598 62.5508 133.598C64.9596 133.598 66.1641 132.263 66.1641 129.594V83.4023C66.1641 80.2773 65.806 78.194 65.0898 77.1523C64.4388 76.1107 63.0065 75.5898 60.793 75.5898H55.8125V62.4062H60.5977C62.8763 62.4062 64.3737 61.8529 65.0898 60.7461C65.806 59.6393 66.1641 57.4583 66.1641 54.2031V18.3633C66.1641 15.694 64.9596 14.3594 62.5508 14.3594C60.1419 14.3594 58.9375 15.694 58.9375 18.3633V49.8086H43.8008V16.4102C43.8008 11.2669 45.3633 7.26302 48.4883 4.39844C51.6133 1.46875 56.3008 0.00390625 62.5508 0.00390625C68.8008 0.00390625 73.4557 1.5013 76.5156 4.49609C79.6406 7.42578 81.2031 11.3971 81.2031 16.4102V50.1992C81.2031 54.1055 80.9102 57.263 80.3242 59.6719C79.7383 62.0807 78.7292 63.9036 77.2969 65.1406C75.9297 66.3125 74.5625 67.0938 73.1953 67.4844C71.8932 67.875 70.0052 68.2331 67.5312 68.5586C71.763 68.8841 75.0833 70.1536 77.4922 72.3672C79.9661 74.5807 81.2031 78.5846 81.2031 84.3789V131.645C81.2031 136.658 79.6406 140.629 76.5156 143.559C73.4557 146.488 68.8008 147.953 62.5508 147.953C56.3008 147.953 51.6133 146.521 48.4883 143.656C45.3633 140.792 43.8008 136.788 43.8008 131.645Z" fill="#505258"/>
    <path d="M87.2227 146V1.95703H108.023L115.445 57.2305L122.184 1.95703H142.984V146H128.043V75.1992L116.227 143.754H114.176L102.359 75.1992V146H87.2227ZM146.5 146L159.293 1.95703H177.066L189.957 146H174.918L172.672 119.828H163.688L161.539 146H146.5ZM164.664 106.84H171.5L168.082 65.4336L164.664 106.84ZM193.473 146V1.95703H205.484L219.254 59.5742V1.95703H234.488V146H223.062L208.609 83.4023V146H193.473ZM240.934 131.645V17.582C240.934 12.3737 242.496 8.23958 245.621 5.17969C248.811 2.11979 253.499 0.589844 259.684 0.589844C265.543 0.589844 270.003 2.15234 273.062 5.27734C276.188 8.40234 277.75 12.5039 277.75 17.582V50.0039H263.297V18.7539C263.297 16.2799 262.092 15.043 259.684 15.043C257.275 15.043 256.07 16.2799 256.07 18.7539V129.789C256.07 132.328 257.275 133.598 259.684 133.598C262.092 133.598 263.297 132.328 263.297 129.789V78.2266H259.488V65.4336H277.75V146H271.109L268.473 141.215C267.626 143.298 266.129 144.926 263.98 146.098C261.832 147.335 259.553 147.953 257.145 147.953C246.337 147.953 240.934 142.517 240.934 131.645ZM280.484 146L293.277 1.95703H311.051L323.941 146H308.902L306.656 119.828H297.672L295.523 146H280.484ZM298.648 106.84H305.484L302.066 65.4336L298.648 106.84Z" fill="#505258"/>
</svg>
