<svg width="463" height="148" viewBox="0 0 463 148" fill="none" xmlns="http://www.w3.org/2000/svg">
    <path opacity="0.2" d="M0.832031 131.645V16.4102C0.832031 11.2669 2.39453 7.26302 5.51953 4.39844C8.64453 1.46875 13.332 0.00390625 19.582 0.00390625C25.832 0.00390625 30.487 1.5013 33.5469 4.49609C36.6719 7.42578 38.2344 11.3971 38.2344 16.4102V131.645C38.2344 136.658 36.6719 140.629 33.5469 143.559C30.487 146.488 25.832 147.953 19.582 147.953C13.332 147.953 8.64453 146.521 5.51953 143.656C2.39453 140.792 0.832031 136.788 0.832031 131.645ZM15.9688 129.594C15.9688 132.263 17.1732 133.598 19.582 133.598C21.9909 133.598 23.1953 132.263 23.1953 129.594V18.3633C23.1953 15.694 21.9909 14.3594 19.582 14.3594C17.1732 14.3594 15.9688 15.694 15.9688 18.3633V129.594ZM41.3594 121.586V108.598L60.5977 1.95703H80.3242V108.402H83.5469V121.781H80.3242V146H65.3828V121.586H41.3594ZM55.3242 108.598H65.3828V46L55.3242 108.598Z" fill="#505258"/>
    <path d="M88.2227 146V1.95703H103.359V146H88.2227ZM109.902 146V1.95703H121.914L135.684 59.5742V1.95703H150.918V146H139.492L125.039 83.4023V146H109.902ZM173.379 146V1.95703H191.543C197.923 1.95703 202.676 3.64974 205.801 7.03516C208.991 10.3555 210.586 14.5547 210.586 19.6328V59.9648C210.586 66.7357 208.307 70.9349 203.75 72.5625C205.117 73.1484 206.224 73.7669 207.07 74.418C207.917 75.0039 208.73 76.1107 209.512 77.7383C210.358 79.3659 210.781 81.3841 210.781 83.793V138.969C210.781 142.224 211.367 144.568 212.539 146H197.109C196.458 145.089 196.068 144.242 195.938 143.461C195.807 142.68 195.742 141.247 195.742 139.164V85.1602C195.742 83.3372 195.482 82.0352 194.961 81.2539C194.44 80.4727 193.561 79.9193 192.324 79.5938H188.32V146H173.379ZM188.32 65.043H191.543C192.454 65.043 193.333 64.6849 194.18 63.9688C195.091 63.2526 195.547 62.2109 195.547 60.8438V21C195.547 19.8932 195.254 18.9492 194.668 18.168C194.082 17.3867 193.366 16.9961 192.52 16.9961H188.32V65.043ZM217.715 146V1.95703H249.258V15.043H232.852V62.4062H248.672V75.1992H232.852V133.012H249.258V146H217.715ZM251.211 146L264.004 1.95703H281.777L294.668 146H279.629L277.383 119.828H268.398L266.25 146H251.211ZM269.375 106.84H276.211L272.793 65.4336L269.375 106.84ZM298.184 146V1.95703H313.32V133.012H324.16V146H298.184ZM343.887 146V1.95703H359.023V133.012H369.863V146H343.887ZM373.574 146V1.95703H388.711V146H373.574ZM395.254 146V1.95703H426.797V15.043H410.391V65.4336H426.211V78.4219H410.391V146H395.254ZM430.996 146V1.95703H462.539V15.043H446.133V62.4062H461.953V75.1992H446.133V133.012H462.539V146H430.996Z" fill="#505258"/>
</svg>
